<svg 
  	xmlns="http://www.w3.org/2000/svg"
    className="logo"
    width="1000px"
    height="1000px"
    viewBox="0 0 1000 1000"
    fill="#000000"
    stroke="#000000"
    strokeWidth="1"
    strokeLinecap="square"
    strokeLinejoin="miter">

  <!-- <rect width="1000" height="1000" />
  <rect x="50" y="50" width="900" height="900" />
  <line x1="500" x2="500" y1="0" y2="10000" />
  <line x1="0" x2="1000" y1="500" y2="500" />

  <polygon points="500, 50 950, 950 50, 950" />
  <polygon points="500, 200 840, 884 160, 884" />
  <polygon points="500, 290 775, 844 226, 844" />
  <line x1="275" x2="1000" y1="500" y2="1000" />
  <line x1="0" x2="725" y1="1000" y2="500" />

  <polygon points="500, 200 873, 950 127, 950" />
  <polygon points="462.5, 125 840, 884 83, 884" />
  <polygon points="537.5, 125 917, 884 160, 884" />
  <line x1="70" x2="775" y1="844" y2="844" />
  <line x1="226" x2="594" y1="844" y2="100" />
  <line x1="500" x2="843" y1="290" y2="980" />

  <rect x="409" y="485.2" width="182" height="339" />
  <line x1="500" x2="500" y1="0" y2="654.7" stroke="purple" /> -->

  	<polygon
        className="logo-line1"
        points="500, 50 103, 844 179.8,844 537.5,124.9"
    />
    <polygon
        className="logo-line2"
        points="873, 950 950,950 559.7, 169.4 522.3, 245"
    />
    <polygon
        className="logo-line3"
        points="50, 950 828.1,950 795.3,884 83,884"      
    />
    <text x="399" y="816.5" id="text" style="400">
         J
    </text>
</svg>